<?xml version="1.0" encoding="utf-8"?>
<!-- Generator: Adobe Illustrator 23.0.4, SVG Export Plug-In . SVG Version: 6.00 Build 0)  -->
<svg version="1.1" id="Layer_1" xmlns="http://www.w3.org/2000/svg" xmlns:xlink="http://www.w3.org/1999/xlink" x="0px" y="0px"
	 viewBox="0 0 72 18" style="enable-background:new 0 0 72 18;" xml:space="preserve">
<style type="text/css">
	.st0{fill-rule:evenodd;clip-rule:evenodd;fill:#ffffff;}
</style>
<g transform="translate(-.130435 .191489)">
	<path class="st0" d="M22.5,0l-6.7,14.4l-2.5-5.5l-1-2.2L9.2,0H7.1l4.1,8.9l-2.5,5.5L2.1,0H0l7.7,16.6l0.4,0.8h1.4l0.4-0.8l2.5-5.5
		l2.5,5.5l0.4,0.8h1.4l0.4-0.8L24.6,0H22.5z"/>
	<path class="st0" d="M37.8,0l-5.1,9l-5.1-9h-2.2l6.3,11.2v6.2h1.9v-6.2L40,0H37.8z"/>
	<path class="st0" d="M56.7,9.4h14.9V7.6H56.7L56.7,9.4z"/>
	<path class="st0" d="M56.7,9.4h14.9V7.6H56.7L56.7,9.4z"/>
	<path class="st0" d="M41.1,0v1.9H52L40.4,17.4h14.7v-1.9H44.2L55.8,0L41.1,0z"/>
	<path class="st0" d="M56.7,1.8h14.9V0H56.7L56.7,1.8z"/>
	<path class="st0" d="M56.7,17.4h14.9v-1.8H56.7L56.7,17.4z"/>
</g>
</svg>
